<?xml version="1.0" encoding="UTF-8" standalone="no"?>
<!-- Created with Inkscape (http://www.inkscape.org/) -->

<svg
   xmlns:dc="http://purl.org/dc/elements/1.1/"
   xmlns:cc="http://creativecommons.org/ns#"
   xmlns:rdf="http://www.w3.org/1999/02/22-rdf-syntax-ns#"
   xmlns:svg="http://www.w3.org/2000/svg"
   xmlns="http://www.w3.org/2000/svg"
   xmlns:sodipodi="http://sodipodi.sourceforge.net/DTD/sodipodi-0.dtd"
   xmlns:inkscape="http://www.inkscape.org/namespaces/inkscape"
   version="1.1"
   id="svg946"
   width="352.77777mm"
   height="315.10825mm"
   viewBox="0 0 1333.3334 1190.9603"
   sodipodi:docname="orcasong_wide_transparent.svg"
   inkscape:export-filename="/home/michael/Desktop/test.png"
   inkscape:export-xdpi="96"
   inkscape:export-ydpi="96"
   inkscape:version="0.92.3 (unknown)">
  <sodipodi:namedview
     pagecolor="#ffffff"
     bordercolor="#666666"
     borderopacity="1"
     objecttolerance="10"
     gridtolerance="10"
     guidetolerance="10"
     inkscape:pageopacity="0"
     inkscape:pageshadow="2"
     inkscape:window-width="1920"
     inkscape:window-height="1146"
     id="namedview948"
     showgrid="false"
     showguides="false"
     units="mm"
     fit-margin-top="0"
     fit-margin-left="0"
     fit-margin-right="0"
     fit-margin-bottom="0"
     inkscape:zoom="0.27524473"
     inkscape:cx="2340.8649"
     inkscape:cy="568.36155"
     inkscape:window-x="0"
     inkscape:window-y="24"
     inkscape:window-maximized="1"
     inkscape:current-layer="g1332"
     inkscape:pagecheckerboard="true">
    <inkscape:grid
       type="xygrid"
       id="grid1270"
       originx="0"
       originy="-166.10167" />
  </sodipodi:namedview>
  <metadata
     id="metadata952">
    <rdf:RDF>
      <cc:Work
         rdf:about="">
        <dc:format>image/svg+xml</dc:format>
        <dc:type
           rdf:resource="http://purl.org/dc/dcmitype/StillImage" />
        <dc:title />
      </cc:Work>
    </rdf:RDF>
  </metadata>
  <defs
     id="defs950">
    <clipPath
       clipPathUnits="userSpaceOnUse"
       id="clipPath177">
      <path
         d="M 0,283.46 H 283.46 V 0 H 0 Z"
         id="path175"
         inkscape:connector-curvature="0" />
    </clipPath>
    <clipPath
       clipPathUnits="userSpaceOnUse"
       id="clipPath141">
      <path
         d="M 0,283.46 H 283.46 V 0 H 0 Z"
         id="path139"
         inkscape:connector-curvature="0" />
    </clipPath>
    <clipPath
       clipPathUnits="userSpaceOnUse"
       id="clipPath129">
      <path
         d="M 0,283.46 H 283.46 V 0 H 0 Z"
         id="path127"
         inkscape:connector-curvature="0" />
    </clipPath>
    <clipPath
       clipPathUnits="userSpaceOnUse"
       id="clipPath109">
      <path
         d="M 2.167,142.406 C 2.167,65.34 64.642,2.867 141.708,2.867 v 0 c 77.067,0 139.54,62.473 139.54,139.539 v 0 c 0,77.065 -62.473,139.541 -139.54,139.541 v 0 C 64.642,281.947 2.167,219.471 2.167,142.406"
         id="path107"
         inkscape:connector-curvature="0" />
    </clipPath>
    <radialGradient
       fx="0"
       fy="0"
       cx="0"
       cy="0"
       r="1"
       gradientUnits="userSpaceOnUse"
       gradientTransform="matrix(139.54004,0,0,-139.54004,141.70801,142.40625)"
       spreadMethod="pad"
       id="radialGradient119">
      <stop
         style="stop-opacity:1;stop-color:#ffffff"
         offset="0"
         id="stop115" />
      <stop
         style="stop-opacity:1;stop-color:#aeddf0"
         offset="1"
         id="stop117" />
    </radialGradient>
    <clipPath
       clipPathUnits="userSpaceOnUse"
       id="clipPath1276">
      <rect
         style="fill:#000000;fill-opacity:1"
         id="rect1278"
         width="1337.2881"
         height="1190.9603"
         x="0"
         y="0" />
    </clipPath>
  </defs>
  <g
     id="g1332">
    <path
       style="fill:#000000;stroke-width:1.33333325;opacity:1"
       d="m 452.36157,1164.1032 c -37.46339,-15.9579 -77.43498,-38.0564 -102.27628,-56.544 -16.62309,-12.3713 -35.89396,-28.9709 -59.25033,-51.0374 -21.98844,-20.7741 -24.71948,-23.8031 -49.94554,-55.3951 -34.61931,-43.35566 -45.81103,-64.09443 -79.03746,-146.46005 -5.17698,-12.83334 -11.51662,-31.13334 -14.08806,-40.66667 -6.46371,-23.96339 -14.12752,-65.07707 -15.40952,-82.66666 -0.58793,-8.06667 -1.79564,-24.56667 -2.6838,-36.66667 -2.33476,-31.80817 -0.30637,-63.57935 7.23563,-113.33333 8.97222,-59.18905 13.70262,-78.93925 27.46403,-114.66667 7.90963,-20.53497 17.611,-52.65142 17.06364,-56.48921 -0.38396,-2.69208 -1.06862,-2.83034 -12.80761,-2.58641 -10.56769,0.21959 -13.31343,0.76712 -18.5646,3.70205 -4.04232,2.25931 -6.61412,2.99288 -7.47485,2.13215 -1.95875,-1.95875 0.9976,-4.84445 11.12974,-10.86384 12.81586,-7.61377 15.19152,-10.53724 15.25743,-18.77572 0.0805,-10.06192 -1.92776,-10.71651 -14.81617,-4.82927 -16.28499,7.43876 -37.45152,14.37692 -43.86023,14.37692 -3.19325,0 -9.28518,-0.90714 -13.537624,-2.01588 -6.41854,-1.6735 -9.450556,-1.75309 -17.85185,-0.46861 -13.16734,2.01316 -17.213202,1.05251 -17.213202,-4.08711 0,-3.74333 0.276116,-3.9007 9.604717,-5.47417 6.507856,-1.09769 12.63405,-1.24556 18.999999,-0.4586 13.90023,1.71835 30.91327,1.12852 40.72862,-1.41203 11.6799,-3.02316 31.62494,-12.83852 37.19702,-18.30542 6.02111,-5.90744 8.35771,-11.9015 8.31264,-21.32427 -0.0349,-7.30901 0.15637,-7.78724 3.11544,-7.78724 4.08767,0 4.80229,-2.24968 2.5078,-7.89464 -1.81889,-4.4749 -1.76695,-4.63308 2.74184,-8.3496 8.32195,-6.85965 9.93965,-18.67636 4.21375,-30.77992 -1.87806,-3.96989 -3.80058,-10.1635 -4.27227,-13.76358 -2.35655,-17.9861 -12.28476,-21.57344 -29.26463,-10.57412 -6.69304,4.33566 -10.58795,5.97929 -14.21826,6 -4.0354,0.0231 -5,-0.46076 -5,-2.5077 0,-1.632 1.45903,-3.04485 4.09233,-3.96282 2.25078,-0.78463 8.40077,-4.08034 13.66667,-7.3238 5.26588,-3.24346 11.07433,-6.33116 12.90766,-6.86155 5.64192,-1.63224 8,-4.64736 8,-10.22909 0,-2.84178 1.5,-8.73071 3.33334,-13.08651 1.83333,-4.3558 3.33333,-10.05708 3.33333,-12.66951 0,-6.61854 -7.30992,-24.88883 -12.87492,-32.17939 C 164.48402,172.13733 163.73246,168 167.03654,168 c 0.78392,0 5.03266,5.63784 9.44164,12.52853 4.40898,6.89071 9.18174,12.83331 10.60613,13.2058 1.75376,0.45861 5.28337,-1.47729 10.93355,-5.9968 12.32246,-9.8566 23.29484,-15.94068 46.34372,-25.6972 11.36666,-4.81148 23.825,-10.91768 27.68517,-13.56935 13.30922,-9.14249 28.96296,-28.21428 46.35024,-56.470982 11.77809,-19.141009 12.80142,-21.360729 11.18192,-24.254641 -0.65078,-1.162868 -7.08698,-6.044587 -14.30266,-10.848264 -7.21569,-4.803677 -13.87293,-9.641872 -14.79388,-10.751543 -2.12942,-2.565792 -0.74204,-7.052582 2.76036,-8.927007 4.46487,-2.389532 8.88923,-0.210983 13.98972,6.888524 4.45487,6.200848 15.93631,14.515136 20.0885,14.547086 1.49572,0.01147 12.28232,-14.888646 16.37416,-22.618569 0.9601,-1.813761 2.17604,-7.693338 2.70205,-13.065725 1.17131,-11.962871 4.36143,-16.3031925 11.98281,-16.3031925 3.94287,0 5.1858,0.6560365 6.43424,3.3960705 2.8363,6.224973 1.85331,11.861901 -3.39252,19.454313 -4.79228,6.935978 -16.39345,32.873311 -16.39345,36.651676 0,3.317056 7.75569,6.756584 17.04032,7.557109 4.92783,0.42488 16.44463,2.610382 25.59289,4.85667 9.14827,2.246288 17.14121,4.08416 17.76209,4.08416 0.62088,0 0.93594,-1.638867 0.70012,-3.641927 -0.65505,-5.564084 3.31975,-5.467813 6.64074,0.160841 4.28308,7.259295 9.55036,9.268237 23.71724,9.04578 9.46254,-0.148588 14.14022,-0.949097 21.33333,-3.650857 5.06729,-1.903296 10.33089,-4.462531 11.69688,-5.687188 2.53771,-2.275136 2.53795,-5.571558 0.001,-21.893315 -0.60361,-3.884422 -0.33462,-5 1.20564,-5 2.9321,0 4.58874,2.592057 6.40258,10.01773 0.89325,3.656915 2.15877,7.698936 2.81224,8.982269 2.86073,5.618069 11.82737,0.462636 12.19837,-7.013537 0.288,-5.803673 3.75196,-6.89113 6.02935,-1.892819 1.32005,2.897223 2.14046,3.338478 4.57104,2.458536 1.62922,-0.589829 7.8793,-0.933285 13.88905,-0.763237 9.7626,0.276237 11.07996,0.02307 12.36396,-2.376099 1.0802,-2.018394 0.93281,-3.892238 -0.59351,-7.545226 -3.33652,-7.98542 -1.96532,-9.440734 4.27223,-4.534284 4.38938,3.452695 12.26265,3.452695 19.03049,0 2.87491,-1.466667 7.33559,-2.666667 9.91264,-2.666667 3.91119,0 5.04593,0.696922 6.86624,4.216996 2.68571,5.193591 1.89419,12.823209 -1.88025,18.123911 -2.71342,3.810641 -14.64842,9.237211 -36.90161,16.778313 -5.13498,1.740125 -17.07916,7.15017 -26.54264,12.022322 -9.4632,4.872153 -17.99075,8.858453 -18.94983,8.858453 -2.54452,0 -4.33808,4.24675 -3.09713,7.33334 2.56345,6.37609 0.74224,14.0069 -3.34047,13.99639 -0.77,-0.002 -2.62023,-2.25198 -4.11161,-5 -2.09839,-3.86646 -3.4553,-4.94167 -6,-4.7544 -2.72264,0.20035 -16.2728,7.15957 -43.28839,22.23245 -2.2,1.22744 -7.45,3.46594 -11.66667,4.97444 -4.21666,1.50849 -7.66666,3.37629 -7.66666,4.15066 0,2.03743 8.03206,0.49136 24.88066,-4.78922 18.4641,-5.7869 78.91824,-17.89188 94.51384,-18.9249 6.56636,-0.43494 16.43883,-0.13782 21.93883,0.66028 15.19342,2.20469 68.65389,4.31328 72.47962,2.85874 2.51638,-0.95672 3.74218,-0.70266 5.38884,1.11689 3.36023,3.713 2.53696,6.6618 -2.53513,9.08052 -2.56667,1.22396 -4.66667,3.10585 -4.66667,4.18199 0,1.66184 2.46063,1.8226 16.33334,1.06716 48.73854,-2.65411 66.39914,-2.58682 92.33333,0.35184 64.38262,7.2953 104.18619,17.54182 153.90095,39.61826 35.3821,15.71185 87.41005,46.21263 113.64108,66.62071 8.8545,6.88893 16.614,12.20713 17.2433,11.81821 2.5534,-1.57813 -43.56434,-41.34995 -60.25918,-51.96727 -5.42272,-3.44866 -14.05949,-9.70706 -19.19282,-13.90757 -12.42258,-10.16513 -16.75622,-12.78329 -42.9895,-25.97202 -26.79554,-13.4714 -45.80645,-21.3876 -74.34384,-30.95699 -11.73333,-3.93451 -22.18366,-7.46639 -23.22295,-7.84863 -1.24318,-0.45721 -1.4394,-1.14518 -0.5736,-2.01099 1.53518,-1.53518 17.22751,2.69783 40.46322,10.91494 17.86785,6.31883 75.16517,29.42327 84.17648,33.94315 9.51384,4.77193 67.21986,43.08203 78.77279,52.29595 5.6554,4.51044 15.8554,13.80575 22.6666,20.65626 6.8113,6.8505 14.7842,14.20881 17.7175,16.35178 2.9333,2.14298 14.0514,12.59895 24.7068,23.23551 25.3057,25.26095 41.2052,46.61645 54.6448,73.39666 3.1123,6.20172 10.4913,19.67586 16.3977,29.94252 31.74,55.17178 44.1965,89.34811 55.6435,152.66667 5.5924,30.934 6.8606,51.8599 6.9091,113.99999 0.045,57.09162 -0.5732,66.2977 -7.6043,113.33333 -5.403,36.14363 -9.2743,52.96703 -15.8691,68.96195 -12.0904,29.32394 -25.4665,58.61732 -32.6406,71.48241 -4.362,7.82227 -12.7408,23.34456 -18.6196,34.49399 -12.3945,23.50678 -16.3424,29.52294 -27.2846,41.57816 -4.4015,4.84925 -12.3338,14.51678 -17.6272,21.48348 -24.5446,32.3027 -57.2229,63.0612 -89.86106,84.5817 -11.92012,7.8598 -39.76452,23.4183 -41.91065,23.4183 -2.11343,0 -0.59099,-3.1786 2.78184,-5.8081 26.05388,-20.3115 98.71117,-89.6808 96.37667,-92.0153 -0.8508,-0.8507 -5.6085,2.8567 -13.674,10.6554 -25.5065,24.6627 -68.64947,55.9323 -102.36934,74.1961 -17.4641,9.4592 -48.69832,22.3052 -54.23353,22.3052 -4.81104,0 0.40081,-3.7015 24.56687,-17.4479 56.95298,-32.3967 84.66071,-53.5954 129.9917,-99.4544 16.5443,-16.73704 33.0599,-34.03099 36.7012,-38.43099 9.9654,-12.04163 46.5119,-66.16395 53.3217,-78.96507 3.2879,-6.18068 11.6427,-23.34198 18.5662,-38.13626 11.2569,-24.05391 13.2202,-29.42932 18.5641,-50.82735 3.2867,-13.16077 7.7078,-28.25392 9.8246,-33.54032 4.4839,-11.19808 6.7077,-22.01244 6.6713,-32.44254 -0.014,-4.08199 0.9918,-22.12179 2.2357,-40.08845 l 2.2616,-32.66667 -3.668,-36.66667 c -4.9135,-49.11839 -6.6986,-58.01673 -13.048,-65.04306 -5.7667,-6.38151 -7.7378,-12.49028 -7.748,-24.01315 -0.012,-13.49777 -3.5671,-27.47022 -12.9386,-50.85072 -4.8294,-12.04882 -9.6442,-25.24882 -10.6995,-29.33333 -2.4505,-9.4844 -7.747,-19.93577 -17.4902,-34.51241 -4.2573,-6.36936 -13.3968,-21.09379 -20.3098,-32.72093 -14.1156,-23.74091 -23.0353,-34.51247 -33.1282,-40.00568 -3.7805,-2.05763 -8.3241,-5.19155 -10.0968,-6.96426 -2.7924,-2.79238 -4.4658,-3.22312 -12.5218,-3.22312 -12.8089,0 -13.5324,-0.9017 -13.3143,-16.59446 0.1569,-11.28481 -0.1702,-13.03603 -3.6175,-19.36993 -4.345,-7.98307 -32.12903,-35.46306 -47.71766,-47.1954 C 926.3296,220.88987 880.70405,197.01824 819.69489,176.46257 765.29988,158.13538 751.01486,155.13926 701.6949,151.7134 c -26.66016,-1.85187 -45.99036,-2.02124 -79.33333,-0.69514 -25.26682,1.00491 -43.51135,3.5595 -65.33334,9.14792 -8.8,2.2536 -21.02667,5.25678 -27.17039,6.67371 -8.76812,2.0222 -11.96564,3.42756 -14.86828,6.53484 -2.03383,2.17723 -4.20716,3.97048 -4.8296,3.98501 -9.60054,0.22406 -20.748,3.381 -30.29134,8.5785 -5.96221,3.24712 -16.40742,8.02625 -23.21158,10.62028 -20.67238,7.88117 -69.36252,33.87442 -70.61267,37.69659 -0.28574,0.87364 1.46872,2.596 3.89883,3.82746 9.66495,4.89769 11.95977,10.63902 5.85204,14.64096 -3.06849,2.01054 -3.70049,1.87642 -12.41999,-2.63594 -10.81118,-5.59478 -14.3413,-5.86284 -20.66802,-1.56941 -22.87394,15.52267 -78.54059,67.14849 -80.40223,74.56584 -1.40217,5.58672 0.32023,9.84501 6.17217,15.25946 2.96618,2.74442 9.32203,9.65983 14.12415,15.36759 11.49227,13.65965 13.21181,14.46511 29.88395,13.99821 12.72096,-0.35625 13.55873,-0.21097 15.98378,2.77175 3.74508,4.60633 3.20943,10.74676 -1.56646,17.95704 -3.95754,5.97479 -5.14356,6.81648 -8.90655,6.32072 -2.61916,-0.34507 -36.13643,-22.41328 -43.63447,-28.72951 -8.69068,-7.32088 -10.8133,-8.35085 -17.99999,-8.7341 -10.00391,-0.53351 -10.32156,-0.35136 -15.8273,9.07577 -6.18736,10.59421 -11.17234,15.96457 -17.1727,18.50027 -2.38334,1.00717 -4.33334,2.34949 -4.33334,2.98292 0,1.65029 24.82655,19.16846 33.12427,23.37324 3.84544,1.94864 10.66021,4.28546 15.14393,5.19296 8.90248,1.80184 11.25153,3.99926 9.92504,9.28441 -1.36796,5.45039 -4.89027,5.47156 -18.88852,0.1136 -10.8762,-4.16299 -14.42221,-6.31511 -22.26678,-13.51408 -14.53102,-13.33511 -22.65079,-15.48941 -30.94219,-8.20947 -7.71137,6.77068 -36.46592,67.77563 -46.888,99.47643 -5.58077,16.97502 -13.64017,49.68317 -18.56681,75.35126 l -3.50395,18.2558 0.56943,67.07753 c 0.52178,61.46716 0.79972,68.14979 3.32304,79.89751 11.11997,51.77086 38.78794,137.56667 50.03734,155.16107 2.3466,3.67014 8.65776,11.77583 14.02483,18.01263 5.36707,6.2368 14.05067,18.23964 19.29691,26.67297 17.06836,27.43739 41.08317,55.20443 87.14566,100.7619 18.58952,18.3857 33.77917,33.9857 33.75477,34.6666 -0.0244,0.681 -1.11586,-0.044 -2.42548,-1.6117 -1.30961,-1.5674 -4.8416,-4.1051 -7.84885,-5.6393 -7.44508,-3.7982 -20.41611,-13.759 -38.88155,-29.8583 -19.70005,-17.1757 -35.34753,-33.3041 -52.69953,-54.31922 -13.13164,-15.90383 -38.56858,-50.20422 -39.81288,-53.68559 -0.32392,-0.90625 -0.95957,-1.30925 -1.41257,-0.89553 -1.26383,1.15422 9.59553,21.62909 19.75531,37.24778 22.69756,34.89316 26.79949,40.71796 34.38346,48.82526 4.4393,4.7456 12.92732,12.1378 18.86228,16.4271 5.93496,4.2893 15.57725,13.0624 21.42732,19.4957 15.76015,17.3316 28.88285,27.5922 77.43031,60.5424 24.16326,16.4001 46.93321,32.4484 50.59987,35.663 3.66667,3.2146 11.0435,7.9359 16.39295,10.4919 8.45,4.0374 12.48129,7.467 10.77177,9.1641 -0.27393,0.2719 -8.59805,-2.9559 -18.49805,-7.1729 z M 293.65471,292.7089 c 9.11293,-7.73652 11.45313,-11.99459 7.43877,-13.53504 -4.13317,-1.58604 -19.39857,14.04764 -19.39857,19.86659 0,3.4437 1.18337,2.81722 11.9598,-6.33155 z m 18.47978,-17.70891 c 1.61,-3.13037 0.54143,-5.66666 -2.38744,-5.66666 -3.1043,0 -5.89892,3.40546 -4.90982,5.98302 1.05702,2.75455 5.82413,2.54788 7.29726,-0.31636 z m 11.97708,-9.58333 c 0.33334,-1 -0.16666,-1.5 -1.16666,-1.16667 -0.96251,0.32083 -2.01251,1.37083 -2.33334,2.33334 -0.33333,1 0.16667,1.5 1.16667,1.16666 0.96249,-0.32084 2.01249,-1.37084 2.33333,-2.33333 z m 15.41959,-11.9024 c 2.46469,-2.72345 2.45785,-2.72727 -2.01492,-1.12349 -4.79867,1.72062 -6.71801,3.4917 -5.65244,5.21584 0.84343,1.36468 4.4904,-0.58184 7.66736,-4.09235 z m 52.34461,-34.95643 c 9.74036,-5.86092 21.06584,-12.14042 25.16773,-13.95448 4.1019,-1.81405 7.0911,-3.89192 6.64267,-4.61747 -1.28628,-2.08126 -4.03749,-1.5481 -6.59515,1.27806 -2.204,2.43541 -45.37209,21.50796 -53.03114,23.43025 -4.23167,1.0621 -5.71976,4.12154 -2.79955,5.75578 3.99762,2.23717 12.8453,-1.19959 30.61544,-11.89214 z m 116.64472,-49.09117 c 13.07356,-5.92784 52.64668,-16.61682 65.82968,-17.78108 5.46306,-0.48246 6.15697,-4.5201 1.10841,-6.44953 -3.76307,-1.43815 -15.51275,-0.56285 -40.43034,3.01189 -5.5,0.78904 -12.1,1.68524 -14.66667,1.99155 -8.47591,1.01152 -10.66667,1.78908 -10.66667,3.78591 0,1.43097 1.56011,1.98022 5.66667,1.99501 3.11667,0.0107 6.49353,0.54415 7.50416,1.18427 2.17712,1.37897 0.85424,4.12865 -1.98631,4.12865 -4.12302,0 -20.29685,4.21109 -22.57674,5.87819 -2.33991,1.71097 -1.98016,6.12181 0.49929,6.12181 0.65492,0 5.02825,-1.74 9.71852,-3.86667 z m -114.99674,-8.53898 c 12.25693,-5.48754 14.99613,-7.80884 10.28517,-8.7161 -2.8492,-0.5487 -17.21348,6.40972 -22.78068,11.03555 -5.84244,4.85453 -1.88927,4.12073 12.49551,-2.31945 z M 330.52291,134.1944 c 14.57793,-9.79308 31.46341,-20.67876 37.52329,-24.1904 9.95701,-5.76998 11.24092,-6.19339 13.33333,-4.39706 1.27346,1.09325 3.36538,2.36009 4.64871,2.81521 3.71543,1.31763 2.72895,4.20719 -2.62456,7.68779 -5.15737,3.35309 -9.66091,9.71571 -8.03073,11.34588 0.5172,0.51719 3.50121,-0.32039 6.63116,-1.86128 3.12993,-1.5409 10.4908,-4.19902 16.35746,-5.90692 9.44536,-2.74975 10.66667,-3.4658 10.66667,-6.25391 0,-2.78993 -1.35665,-3.58257 -11.90875,-6.95783 -6.5498,-2.09507 -12.9998,-3.80922 -14.33333,-3.80922 -1.33352,0 -2.42459,-0.55384 -2.42459,-1.23077 0,-2.797835 -8.4402,-9.367791 -14.70964,-11.450167 -3.69786,-1.228235 -9.76125,-4.277481 -13.4742,-6.776105 -3.71293,-2.498624 -7.88297,-4.542953 -9.26674,-4.542953 -1.51738,0 -3.91695,2.249117 -6.04576,5.666666 -1.94139,3.116667 -6.66495,8.9841 -10.49682,13.038741 -8.22085,8.698808 -10.48005,12.764208 -12.56504,22.610568 -1.60261,7.56832 -3.65676,11.63398 -8.76632,17.35069 -3.29108,3.68215 -6.3879,11.64127 -5.24749,13.48649 0.40117,0.6491 1.51659,1.18018 2.47871,1.18018 0.96212,0 13.6767,-8.01252 28.25464,-17.8056 z m 281.83866,2.80561 3.33333,-1.27464 -3.33333,-1.32001 c -6.05258,-2.39685 -21.18204,-0.79519 -21.36044,2.2613 -0.17552,3.00683 13.79861,3.2249 21.36044,0.33335 z M 394.46873,126.99605 c -0.60994,-0.60995 -8.77382,3.4376 -8.77382,4.34995 0,0.33597 2.09246,-0.38697 4.64992,-1.60654 2.55746,-1.21957 4.41321,-2.4541 4.1239,-2.74341 z M 865.69489,1130.6666 c 0,-0.7333 0.6,-1.3333 1.33334,-1.3333 0.73333,0 1.33333,0.6 1.33333,1.3333 0,0.7334 -0.6,1.3334 -1.33333,1.3334 -0.73334,0 -1.33334,-0.6 -1.33334,-1.3334 z M 759.64007,123.91129 c -0.48337,-0.78212 -0.60467,-1.69625 -0.26952,-2.03139 0.92996,-0.92997 4.99101,0.91116 4.99101,2.26275 0,1.66905 -3.65774,1.48981 -4.72149,-0.23136 z m -13.94517,-2.57796 c 0,-0.73333 0.9,-1.33333 2,-1.33333 1.1,0 2,0.6 2,1.33333 0,0.73333 -0.9,1.33333 -2,1.33333 -1.1,0 -2,-0.6 -2,-1.33333 z"
       id="path114"
       inkscape:connector-curvature="0" />
    <g
       id="g103"
       transform="matrix(2.3891373,0,0,-2.3891373,332.69312,1012.1542)">
      <g
         clip-path="url(#clipPath109)"
         id="g105">
        <g
           id="g111">
          <g
             id="g113">
            <path
               inkscape:connector-curvature="0"
               id="path121"
               style="fill:url(#radialGradient119);stroke:none"
               d="M 2.167,142.406 C 2.167,65.34 64.642,2.867 141.708,2.867 v 0 c 77.067,0 139.54,62.473 139.54,139.539 v 0 c 0,77.065 -62.473,139.541 -139.54,139.541 v 0 C 64.642,281.947 2.167,219.471 2.167,142.406" />
          </g>
        </g>
      </g>
    </g>
    <g
       id="g123"
       transform="matrix(2.3891373,0,0,-2.3891373,332.69312,1012.1542)">
      <g
         clip-path="url(#clipPath129)"
         id="g125">
        <g
           transform="translate(234.1689,246.9053)"
           id="g131">
          <path
             inkscape:connector-curvature="0"
             id="path133"
             style="fill:#454495;fill-opacity:1;fill-rule:nonzero;stroke:none"
             d="m 0,0 c -0.004,-0.02 -0.009,-0.04 -0.014,-0.059 -29.103,-120.411 -104.907,-153.611 -229.621,-130.117 12.053,-64.799 68.879,-113.863 137.174,-113.863 77.066,0 139.54,62.474 139.54,139.54 C 47.079,-62.903 28.871,-25.565 0,0" />
        </g>
      </g>
    </g>
    <g
       id="g135"
       transform="matrix(2.3891373,0,0,-2.3891373,332.69312,1012.1542)">
      <g
         clip-path="url(#clipPath141)"
         id="g137">
        <g
           transform="translate(246.1172,134.5537)"
           id="g143">
          <path
             inkscape:connector-curvature="0"
             id="path145"
             style="fill:#1a1a18;fill-opacity:1;fill-rule:nonzero;stroke:none"
             d="m 0,0 c -1.158,4.632 -20.451,0.771 -23.152,1.543 -2.702,0.773 -6.947,22.384 -14.278,24.313 -3.358,0.885 -8.814,-10.142 -7.562,-16.199 2.221,-10.75 2.159,-24.706 2.159,-24.706 0,0 -30.336,-5.401 -60.895,28.944 -1.37,1.049 -2.618,1.994 -3.771,2.858 2.659,3.43 4.065,7.384 1.769,9.489 -4.228,3.876 -12.988,3.934 -19.974,3.214 -2.359,1.762 -5.348,4.164 -9.936,8.085 15.011,17.907 9.862,35.822 3.67,36.55 -4.888,0.575 -13.421,-17.282 -17.449,-26.416 -20.934,11.725 -49.14,14.082 -53.552,7.508 -1.352,-2.016 -8.453,1.833 -10.804,-2.701 -6.595,-12.716 20.066,-76.406 60.968,-91.069 1.187,-29.748 11.489,-37.868 18.522,-38.201 1.93,-0.092 1.93,9.644 1.93,16.977 0,7.332 3.472,11.963 7.717,11.963 4.245,0 30.485,-0.77 39.746,0 9.261,0.771 31.254,3.857 45.533,20.451 C -13.505,-33.185 2.315,-7.332 0,0" />
        </g>
        <g
           transform="translate(43.1465,189.7368)"
           id="g147">
          <path
             inkscape:connector-curvature="0"
             id="path149"
             style="fill:#ffffff;fill-opacity:1;fill-rule:nonzero;stroke:none"
             d="m 0,0 c -0.548,-4.209 17.947,-18.53 19.49,-19.688 1.544,-1.157 6.175,-1.543 9.648,-5.788 3.472,-4.244 3.472,-6.944 5.402,-10.032 1.929,-3.087 15.821,-2.701 15.821,-2.701 0,0 16.487,13.639 26.906,12.481 C 55.759,3.624 1.158,8.875 0,0" />
        </g>
        <g
           transform="translate(129.1963,143.8169)"
           id="g151">
          <path
             inkscape:connector-curvature="0"
             id="path153"
             style="fill:#ffffff;fill-opacity:1;fill-rule:nonzero;stroke:none"
             d="m 0,0 c 0,0 12.927,-11 21.609,-24.313 8.684,-13.313 21.803,-20.064 30.099,-20.451 8.296,-0.386 23.538,10.611 22.38,20.452 -23.345,0.965 -32.221,5.98 -43.025,13.505 C 20.26,-3.281 13.667,5.946 9.422,7.49 5.62,7.236 0,0 0,0" />
        </g>
        <g
           transform="translate(72.5962,157.9473)"
           id="g155">
          <path
             inkscape:connector-curvature="0"
             id="path157"
             style="fill:#ffffff;fill-opacity:1;fill-rule:nonzero;stroke:none"
             d="m 0,0 c 0,-3.516 -2.542,-6.366 -5.68,-6.366 -3.136,0 -5.679,2.85 -5.679,6.366 0,3.517 2.543,6.367 5.679,6.367 C -2.542,6.367 0,3.517 0,0" />
        </g>
        <g
           transform="translate(68.0352,145.5527)"
           id="g159">
          <path
             inkscape:connector-curvature="0"
             id="path161"
             style="fill:#ffffff;fill-opacity:1;fill-rule:nonzero;stroke:none"
             d="M 0,0 C 0,0 20.644,3.859 22.767,-18.524 7.91,-24.892 -4.245,-7.913 0,0" />
        </g>
        <g
           transform="translate(210.084,112.627)"
           id="g163">
          <path
             inkscape:connector-curvature="0"
             id="path165"
             style="fill:#ffffff;fill-opacity:1;fill-rule:nonzero;stroke:none"
             d="M 0,0 C 6.997,-0.82 20.323,-2.014 30.869,17.365 20.932,23.068 12.302,18.262 8.829,17.49 9.408,22.893 4.135,38.1 0.15,41.412 -9.017,31.537 2,17.345 0,0" />
        </g>
        <g
           transform="translate(70.8374,159.3296)"
           id="g167">
          <path
             inkscape:connector-curvature="0"
             id="path169"
             style="fill:#1a1a18;fill-opacity:1;fill-rule:nonzero;stroke:none"
             d="m 0,0 c 0,-1.65 -1.337,-2.988 -2.988,-2.988 -1.65,0 -2.988,1.338 -2.988,2.988 0,1.65 1.338,2.988 2.988,2.988 C -1.337,2.988 0,1.65 0,0" />
        </g>
      </g>
    </g>
    <g
       id="g171"
       transform="matrix(2.3891373,0,0,-2.3891373,332.69312,1012.1542)">
      <g
         clip-path="url(#clipPath177)"
         id="g173">
        <g
           transform="translate(90.3643,219.6919)"
           id="g179">
          <path
             inkscape:connector-curvature="0"
             id="path181"
             style="fill:#454495;fill-opacity:1;fill-rule:nonzero;stroke:none"
             d="m 0,0 c 0.662,0.831 0.993,2.012 0.993,3.543 0,1.526 -0.331,2.706 -0.993,3.539 -0.661,0.834 -1.555,1.251 -2.68,1.251 -1.126,0 -2.024,-0.416 -2.695,-1.246 -0.671,-0.83 -1.006,-2.012 -1.006,-3.544 0,-1.531 0.335,-2.712 1.006,-3.543 0.671,-0.831 1.569,-1.246 2.695,-1.246 1.125,0 2.019,0.415 2.68,1.246 m 1.777,-2.066 c -1.028,-1.059 -2.513,-1.588 -4.457,-1.588 -1.945,0 -3.43,0.529 -4.457,1.588 -1.378,1.297 -2.068,3.167 -2.068,5.609 0,2.492 0.69,4.362 2.068,5.611 1.027,1.058 2.512,1.587 4.457,1.587 1.944,0 3.429,-0.529 4.457,-1.587 1.371,-1.249 2.057,-3.119 2.057,-5.611 0,-2.442 -0.686,-4.312 -2.057,-5.609" />
        </g>
        <g
           transform="translate(99.209,227.6553)"
           id="g183">
          <path
             inkscape:connector-curvature="0"
             id="path185"
             style="fill:#454495;fill-opacity:1;fill-rule:nonzero;stroke:none"
             d="m 0,0 v -3.654 h 3.059 c 0.608,0 1.063,0.074 1.367,0.221 0.538,0.259 0.806,0.769 0.806,1.532 0,0.825 -0.259,1.378 -0.779,1.661 C 4.16,-0.08 3.722,0 3.138,0 Z M 5.875,2.012 C 6.375,1.797 6.8,1.479 7.148,1.061 7.436,0.717 7.664,0.335 7.832,-0.083 8,-0.501 8.083,-0.978 8.083,-1.513 8.083,-2.159 7.921,-2.794 7.594,-3.419 7.269,-4.043 6.73,-4.485 5.979,-4.743 6.607,-4.996 7.052,-5.354 7.313,-5.818 7.575,-6.283 7.705,-6.991 7.705,-7.945 v -0.913 c 0,-0.622 0.025,-1.043 0.075,-1.265 0.075,-0.35 0.251,-0.608 0.525,-0.774 v -0.342 H 5.168 c -0.086,0.301 -0.147,0.544 -0.185,0.729 -0.073,0.381 -0.114,0.771 -0.12,1.172 L 4.844,-8.074 C 4.833,-7.207 4.683,-6.628 4.395,-6.339 4.107,-6.05 3.567,-5.905 2.777,-5.905 H 0 v -5.334 H -2.777 V 2.362 H 3.729 C 4.658,2.344 5.374,2.227 5.875,2.012" />
        </g>
        <g
           transform="translate(111.314,228.5962)"
           id="g187">
          <path
             inkscape:connector-curvature="0"
             id="path189"
             style="fill:#454495;fill-opacity:1;fill-rule:nonzero;stroke:none"
             d="m 0,0 c 1.095,1.12 2.489,1.68 4.181,1.68 2.264,0 3.919,-0.751 4.966,-2.252 0.579,-0.843 0.889,-1.689 0.931,-2.538 H 7.236 c -0.181,0.652 -0.413,1.145 -0.695,1.477 -0.507,0.591 -1.257,0.886 -2.251,0.886 -1.014,0 -1.812,-0.417 -2.397,-1.25 -0.584,-0.834 -0.876,-2.013 -0.876,-3.539 0,-1.526 0.308,-2.669 0.925,-3.428 0.617,-0.76 1.4,-1.14 2.351,-1.14 0.975,0 1.718,0.326 2.229,0.979 0.284,0.35 0.519,0.876 0.705,1.577 H 10.05 C 9.807,-9.031 9.185,-10.236 8.184,-11.165 7.182,-12.094 5.9,-12.558 4.336,-12.558 c -1.935,0 -3.457,0.627 -4.565,1.882 -1.107,1.261 -1.661,2.989 -1.661,5.186 0,2.374 0.63,4.205 1.89,5.49" />
        </g>
        <g
           transform="translate(127.3643,221.5557)"
           id="g191">
          <path
             inkscape:connector-curvature="0"
             id="path193"
             style="fill:#454495;fill-opacity:1;fill-rule:nonzero;stroke:none"
             d="M 0,0 H 3.483 L 1.766,5.353 Z M 0.188,8.462 H 3.403 L 8.215,-5.14 H 5.134 L 4.236,-2.344 H -0.772 L -1.695,-5.14 h -2.973 z" />
        </g>
        <g
           transform="translate(142.9102,68.9141)"
           id="g195">
          <path
             inkscape:connector-curvature="0"
             id="path197"
             style="fill:#aeddf0;fill-opacity:1;fill-rule:nonzero;stroke:none"
             d="M 0,0 H 2.496 V -5.003 L 7.188,0 h 3.279 l -4.984,-4.994 5.239,-7.15 H 7.46 L 3.721,-6.843 2.496,-8.081 v -4.063 H 0 Z" />
        </g>
        <g
           transform="translate(163.1104,68.9141)"
           id="g199">
          <path
             inkscape:connector-curvature="0"
             id="path201"
             style="fill:#aeddf0;fill-opacity:1;fill-rule:nonzero;stroke:none"
             d="M 0,0 H 3.651 V -12.144 H 1.287 v 8.214 c 0,0.237 0.002,0.567 0.008,0.992 0.005,0.425 0.008,0.755 0.008,0.986 l -2.301,-10.192 h -2.467 l -2.284,10.192 c 0,-0.231 0.003,-0.561 0.009,-0.986 0.004,-0.425 0.007,-0.755 0.007,-0.992 v -8.214 H -8.098 V 0 h 3.694 l 2.21,-9.549 z" />
        </g>
        <g
           transform="translate(170.5752,60.4365)"
           id="g203">
          <path
             inkscape:connector-curvature="0"
             id="path205"
             style="fill:#aeddf0;fill-opacity:1;fill-rule:nonzero;stroke:none"
             d="m 0,0 c 0,-0.479 0.076,-0.874 0.23,-1.186 0.286,-0.578 0.803,-0.866 1.554,-0.866 0.46,0 0.862,0.158 1.204,0.474 0.343,0.316 0.513,0.77 0.513,1.364 0,0.785 -0.317,1.31 -0.952,1.572 C 2.188,1.508 1.617,1.581 0.84,1.581 v 1.682 c 0.761,0.011 1.292,0.085 1.593,0.222 0.519,0.232 0.78,0.698 0.78,1.402 0,0.455 -0.133,0.825 -0.398,1.111 C 2.549,6.283 2.175,6.426 1.694,6.426 1.14,6.426 0.732,6.251 0.473,5.899 0.213,5.547 0.089,5.079 0.1,4.49 h -2.192 c 0.022,0.593 0.123,1.156 0.304,1.69 0.192,0.466 0.494,0.897 0.904,1.293 0.309,0.28 0.674,0.494 1.096,0.641 0.423,0.149 0.941,0.223 1.555,0.223 1.142,0 2.062,-0.295 2.762,-0.885 C 5.228,6.86 5.577,6.068 5.577,5.074 5.577,4.372 5.369,3.778 4.951,3.296 4.688,2.993 4.413,2.788 4.128,2.678 4.342,2.678 4.649,2.494 5.05,2.125 5.649,1.57 5.948,0.813 5.948,-0.147 c 0,-1.011 -0.35,-1.9 -1.05,-2.666 C 4.2,-3.579 3.163,-3.962 1.791,-3.962 c -1.689,0 -2.862,0.552 -3.522,1.654 C -2.077,-1.72 -2.269,-0.951 -2.307,0 Z" />
        </g>
        <g
           transform="translate(178.4512,68.9141)"
           id="g207">
          <path
             inkscape:connector-curvature="0"
             id="path209"
             style="fill:#aeddf0;fill-opacity:1;fill-rule:nonzero;stroke:none"
             d="m 0,0 h 2.661 l 4.82,-8.468 V 0 H 9.846 V -12.144 H 7.309 l -4.945,8.617 v -8.617 H 0 Z" />
        </g>
        <g
           transform="translate(192.8262,63.54)"
           id="g211">
          <path
             inkscape:connector-curvature="0"
             id="path213"
             style="fill:#aeddf0;fill-opacity:1;fill-rule:nonzero;stroke:none"
             d="M 0,0 C -0.331,-0.342 -0.54,-0.806 -0.625,-1.39 H 3.42 C 3.378,-0.767 3.169,-0.293 2.795,0.029 2.421,0.352 1.956,0.514 1.402,0.514 0.799,0.514 0.333,0.343 0,0 M 3.513,2.029 C 4.14,1.747 4.657,1.305 5.065,0.699 5.432,0.165 5.671,-0.452 5.781,-1.157 5.844,-1.57 5.87,-2.162 5.858,-2.938 h -6.54 c 0.036,-0.901 0.349,-1.534 0.94,-1.895 0.357,-0.226 0.789,-0.338 1.294,-0.338 0.534,0 0.969,0.137 1.302,0.411 0.183,0.149 0.344,0.356 0.485,0.619 h 2.396 c -0.063,-0.534 -0.353,-1.075 -0.87,-1.624 -0.803,-0.873 -1.93,-1.31 -3.378,-1.31 -1.196,0 -2.25,0.369 -3.163,1.106 -0.913,0.736 -1.371,1.934 -1.371,3.595 0,1.556 0.412,2.748 1.237,3.577 0.825,0.831 1.896,1.247 3.211,1.247 0.783,0 1.486,-0.14 2.112,-0.421" />
        </g>
        <g
           transform="translate(208.8848,68.9141)"
           id="g215">
          <path
             inkscape:connector-curvature="0"
             id="path217"
             style="fill:#aeddf0;fill-opacity:1;fill-rule:nonzero;stroke:none"
             d="m 0,0 v -2.15 h -3.633 v -9.994 h -2.554 v 9.994 h -3.65 V 0 Z" />
        </g>
        <g
           transform="translate(209.3428,154.812)"
           id="g219">
          <path
             inkscape:connector-curvature="0"
             id="path221"
             style="fill:none;stroke:#e3000f;stroke-width:3;stroke-linecap:butt;stroke-linejoin:miter;stroke-miterlimit:4;stroke-dasharray:none;stroke-opacity:1"
             d="m 0,0 c -9.342,-11.018 1.98,-20.783 -0.687,-43.201 17.816,-2.75 26.663,6.136 33.329,17.803" />
        </g>
      </g>
    </g>
    <text
       xml:space="preserve"
       style="font-style:normal;font-weight:normal;font-size:40px;line-height:1000;font-family:sans-serif;letter-spacing:0px;word-spacing:0px;fill:#000000;fill-opacity:1;stroke:none;opacity:1"
       x="795.17603"
       y="1164.0372"
       id="text1338"><tspan
         sodipodi:role="line"
         id="tspan1336"
         x="795.17603"
         y="1164.0372"
         style="font-size:80px;opacity:1">ν</tspan></text>
    <text
       id="text1150-3"
       y="911.76202"
       x="2863.7156"
       style="font-style:normal;font-variant:normal;font-weight:normal;font-stretch:normal;font-size:40px;line-height:1.25;font-family:aakar;-inkscape-font-specification:aakar;letter-spacing:0px;word-spacing:0px;fill:#000000;fill-opacity:1;stroke:none"
       xml:space="preserve"><tspan
         style="font-style:normal;font-variant:normal;font-weight:normal;font-stretch:normal;font-size:666.66668701px;line-height:1px;font-family:Laksaman;-inkscape-font-specification:Laksaman;text-align:center;letter-spacing:30px;text-anchor:middle;fill:#000000;fill-opacity:1"
         y="911.76202"
         x="2878.7156"
         id="tspan1148-6"
         sodipodi:role="line">OrcaSong</tspan></text>
  </g>
</svg>
